<svg width="30" height="20.039" viewBox="0.000000 -45.058594 30.000000 20.039062" xmlns="http://www.w3.org/2000/svg"><path d="M17.52-33.81h3.75L15-40.02l-6.27 6.21h3.75v5.04h5.04zm6.68-3.69c1.6.117 2.968.77 4.1 1.963 1.134 1.19 1.7 2.607 1.7 4.248 0 1.72-.615 3.196-1.846 4.427-1.23 1.23-2.705 1.845-4.424 1.845H7.5c-2.07 0-3.838-.73-5.303-2.196C.732-28.682 0-30.45 0-32.52c0-1.914.645-3.584 1.934-5.01 1.29-1.425 2.87-2.236 4.746-2.43a9.797 9.797 0 0 1 3.457-3.692A8.93 8.93 0 0 1 15-45.06c2.266 0 4.258.714 5.977 2.14 1.718 1.426 2.793 3.233 3.222 5.42zm0 0"/></svg>