<svg xmlns="http://www.w3.org/2000/svg" viewBox="0 0 2428.98 2115.98"><defs><style>.a{fill:#01718f}.b{fill:#3eabe8}.c{fill:#37e7a2}.d{fill:#1bc381}.e{fill:#0e191b}.f{fill:#2a333b}</style></defs><title>splatters</title><path class="a" d="M27.252 1571.997l-27.28-73.436 73.435-27.28 27.28 73.44z"/><circle class="a" cx="1939.31" cy="1368.95" r="46.14" transform="rotate(-8.1 1858.588 1350.353)"/><path class="a" d="M625.96 1501.9l-82.97-216.74 229.19 36.51-146.22 180.23z"/><path class="b" d="M2148.442 1438.58l-56.707 4.434-4.433-56.707 56.707-4.434z"/><circle class="b" cx="2162.11" cy="1292.29" r="61.05" transform="rotate(-79.68 2162.134 1292.293)"/><path class="b" d="M1359.66 1066l-61.67 143.33 154.96-18.26-93.29-125.07z"/><path class="c" d="M1389.025 1387.195l-44.71 152.605-152.606-44.712 44.71-152.604z"/><circle class="c" cx="1789.41" cy="1586.27" r="29.32" transform="rotate(-62.53 1789.22 1586.235)"/><path class="c" d="M1717.82 1690.56l38.22 74.81-83.9-4.3 45.68-70.51z"/><path class="d" d="M1671.2 747.448l76.468-10.68 10.68 76.47-76.47 10.678z"/><circle class="d" cx="1495.16" cy="1281.28" r="47.64" transform="rotate(-8.68 1494.543 1280.83)"/><path class="d" d="M1736.85 793.17l9.04 69.78 55.91-42.72-64.95-27.06z"/><path class="e" d="M785.9 1295.432l41.873 76.01-76.01 41.873-41.872-76.01z"/><circle class="e" cx="822.35" cy="1718.77" r="17.12" transform="rotate(-73.69 822.296 1718.736)"/><path class="e" d="M1061.31 1529.07l153.57 17.94-92.32 124.02-61.25-141.96z"/><path class="f" d="M1279.414 1827.48l74.332 57.49-57.492 74.332-74.33-57.49z"/><circle class="f" cx="1134.75" cy="2075.62" r="39.02" transform="rotate(-68.84 1134.737 2075.613)"/><path class="f" d="M995.13 1891.88l-45.89 97.61-61.6-88.55 107.49-9.06z"/><path class="a" d="M232.762 1521.184l-38.073-26.01 26.01-38.074 38.07 26.01z"/><circle class="a" cx="1824.1" cy="1668.57" r="18.52" transform="rotate(-82.34 1823.993 1668.575)"/><path class="a" d="M1042.98 1311.36L982 1377.58l87.84 19.7-26.86-85.92z"/><path class="b" d="M1752.786 1262.185l38.116 27.068-27.068 38.117-38.116-27.068z"/><circle class="b" cx="1342.42" cy="455.38" r="46.41" transform="rotate(-57.47 1342.31 455.403)"/><path class="b" d="M1837.32 593.3l-74.08-11.28 46.81-58.52 27.27 69.8z"/><path class="c" d="M1647.847 1478.97l-63.543 97.25-97.25-63.542 63.54-97.25z"/><circle class="c" cx="1874.9" cy="845.53" r="6.56" transform="rotate(-73.52 1874.906 845.527)"/><path class="c" d="M2120.55 1433.92l26.88 34.25 16.22-40.41-43.1 6.16z"/><path class="d" d="M1524.196 1208.547l46.588 30.602-30.603 46.584-46.584-30.602z"/><circle class="d" cx="1303.02" cy="1318.31" r="14.52" transform="rotate(-62.56 1302.885 1318.274)"/><path class="d" d="M1736.87 868.32l11.19 56.73 43.53-38.06-54.72-18.67z"/><path class="e" d="M1086.327 1491.55l28.148 4.527-4.53 28.148-28.147-4.528z"/><circle class="e" cx="1000.09" cy="1480.34" r="7.17" transform="rotate(-41.04 999.914 1480.214)"/><path class="e" d="M1646.78 940.36l13.29-52.76 39.05 37.9-52.34 14.86z"/><path class="f" d="M1210.096 2045.267l-89.374-7.285 7.285-89.374 89.374 7.285z"/><circle class="f" cx="1326.2" cy="1670.68" r="18.15" transform="rotate(-44.3 1326.008 1670.573)"/><path class="f" d="M1088.23 1644.95l-13.72 41.98 43.22-9.11-29.5-32.87z"/><path class="a" d="M414.36 1296.07l24.908-87.848 87.847 24.908-24.908 87.847z"/><circle class="a" cx="1796.69" cy="1148.41" r="68.87" transform="rotate(-27.1 1796.562 1148.36)"/><path class="a" d="M1961.57 940.6l138.55-60.12-17.21 150.05-121.34-89.93z"/><path class="b" d="M1259.212 1687.318l24.883 71.536-71.535 24.883-24.884-71.536z"/><circle class="b" cx="1692.34" cy="1446.3" r="90.48" transform="rotate(-47.16 1692.208 1446.257)"/><path class="b" d="M1540.32 1187.14l-141.47 47.74 29.38-146.38 112.09 98.64z"/><path class="c" d="M1897.835 1316.96l51.92 95.863-95.864 51.92-51.915-95.863z"/><circle class="c" cx="1735.78" cy="1465.02" r="37.96" transform="rotate(-53.95 1735.79 1465.018)"/><path class="c" d="M449.99 640.19l-44.86 64.9-33.77-71.3 78.63 6.4z"/><path class="d" d="M2224.807 2001.29l-88.973-70.872 70.874-88.972 88.972 70.873z"/><circle class="d" cx="1810.24" cy="1801.4" r="43.6" transform="rotate(-38.51 1810.495 1801.528)"/><path class="d" d="M1942.93 1662.53l76.04-65.26 18.5 98.47-94.54-33.21z"/><path class="e" d="M1776.308 1134.24l.266-54.41 54.41.265-.266 54.41z"/><circle class="e" cx="1395.19" cy="847.56" r="29" transform="rotate(-35 1395.116 847.53)"/><path class="e" d="M1412.24 1353.31l-149.55-35.71 105.7-111.67 43.85 147.38z"/><path class="f" d="M1274.988 134.915l-95.08 42.95-42.95-95.08 95.08-42.95z"/><circle class="f" cx="1292.01" cy="44.06" r="44.06" transform="rotate(-56.17 1291.988 44.07)"/><path class="f" d="M1622.1 108.08l-128.32 10.45 73.21 105.9 55.11-116.35z"/><path class="a" d="M2205.194 878.33l59.093 8.954-8.953 59.093-59.093-8.954z"/><circle class="a" cx="1589.84" cy="1361.93" r="33.82" transform="rotate(-72.51 1589.815 1361.925)"/><path class="a" d="M1003.22 1558.91l-79.11-35.62 8.71 86.32 70.4-50.7z"/><path class="b" d="M1598.763 1685.616l43.927 32.445-32.445 43.93-43.926-32.444z"/><circle class="b" cx="1150.46" cy="1907.01" r="48.29" transform="rotate(-75.76 1150.48 1907.027)"/><path class="b" d="M1200 1498.68l-25.81-96.91 96.83 26.09-71.02 70.82z"/><path class="c" d="M2426.063 1675.905l-106.596 44.83-44.83-106.596 106.596-44.835z"/><circle class="c" cx="687.06" cy="1356.39" r="14.25" transform="rotate(-87.79 687.143 1356.414)"/><path class="c" d="M241.74 1160.07l-15.2 45.08-31.44-35.71 46.64-9.37z"/><path class="d" d="M536.133 1433.26l-61.904-75.66 75.66-61.904 61.9 75.66z"/><circle class="d" cx="940.13" cy="1382.04" r="31.38" transform="rotate(-54.34 940.047 1382.002)"/><path class="d" d="M533.24 1262.93l25.51 63.89-68.09-9.85 42.58-54.04z"/><path class="e" d="M1602.662 896.376l-17.637-43.392 43.392-17.638 17.638 43.393z"/><circle class="e" cx="1075.51" cy="1451.74" r="10.54" transform="rotate(-17.98 1075.645 1451.9)"/><path class="e" d="M2053.6 1480.6l-63.41 24.73 53.13 42.54 10.28-67.27z"/><path class="f" d="M1119.065 360.65l-61.745 73.22-73.22-61.744 61.744-73.22z"/><circle class="f" cx="1784.4" cy="1727.49" r="15.31" transform="rotate(-40.98 1784.122 1727.367)"/><path class="f" d="M1207.94 682.6l42.47 12.61-32.15 30.47-10.32-43.08z"/><path class="a" d="M1780.205 1250.524l40.475 75.234-75.233 40.475-40.475-75.234z"/><circle class="a" cx="472.05" cy="1801.47" r="45.01" transform="rotate(-86.81 472.126 1801.515)"/><path class="a" d="M1347.93 669.36l92.5-220.77-237.44 30.28 144.94 190.49z"/><path class="b" d="M1549.657 1503.298l75.205 40.19-40.19 75.205-75.204-40.19z"/><circle class="b" cx="941.12" cy="1441.08" r="79.97" transform="rotate(-7.37 941.414 1441.478)"/><path class="b" d="M847.11 236.74l88.27-113.64 54.28 133.26-142.55-19.62z"/><path class="c" d="M1921.12 605.733l59.143 128.47-128.47 59.144-59.143-128.47z"/><circle class="c" cx="669.49" cy="1394.79" r="30.85" transform="rotate(-88.55 669.487 1394.782)"/><path class="c" d="M1739.84 97.58l-89.18-14.44 32.09 84.45 57.09-70.01z"/><path class="d" d="M894.998 1109.803l90.166 108.22-108.22 90.166-90.166-108.22z"/><circle class="d" cx="723.59" cy="1610.53" r="78.55" transform="rotate(-88.56 723.61 1610.543)"/><path class="d" d="M877.07 289.32l92.17-55.07-93.78-52.28 1.61 107.35z"/><path class="e" d="M1458.63 408.92l-85.466 24.86-24.863-85.466 85.47-24.863z"/><circle class="e" cx="1893.18" cy="1314.5" r="24.95" transform="rotate(-.63 1880.888 1306.343)"/><path class="e" d="M1285.88 222.04l-22.19 179.99 166.98-70.78-144.79-109.21z"/><path class="f" d="M1163.778 45.95l13.525 98.222-98.223 13.525-13.525-98.223z"/><circle class="f" cx="935.92" cy="494.37" r="39.43" transform="rotate(-53.71 935.934 494.373)"/><path class="f" d="M2426.49 551.7l2.49-139.51-122.06 67.59 119.57 71.92z"/><path class="a" d="M1659.972 1574.486l-41.015 25.45-25.45-41.015 41.015-25.45z"/><circle class="a" cx="376.09" cy="1056.97" r="34.84" transform="rotate(-41.08 376.125 1057.01)"/><path class="a" d="M1221.04 528.93l.4-104.45 90.26 52.57-90.66 51.88z"/><path class="b" d="M864.19 1375.516l53.59-.926.927 53.592-53.592.926z"/><circle class="b" cx="401.54" cy="1457.28" r="57" transform="rotate(-64.55 401.583 1457.32)"/><path class="b" d="M875.27 944.58l58.9-46.47-69.69-27.78 10.79 74.25z"/><path class="c" d="M184.43 753.022l129.493-2.6 2.6 129.494-129.494 2.6z"/><circle class="c" cx="591.52" cy="922.45" r="7.93" transform="rotate(-32.13 591.603 922.525)"/><path class="c" d="M743.55 288.57l-50.62 19 8.86-53.34 41.76 34.34z"/><path class="d" d="M395 803.313l-86.777-53.302 53.303-86.773 86.777 53.302z"/><circle class="d" cx="630.72" cy="580.11" r="34.22" transform="rotate(-53.14 630.67 580.094)"/><path class="d" d="M417.16 1028.9l41.47 42.05-57.15 14.89 15.68-56.94z"/><path class="e" d="M1716.51 1172.274l-33.565-26.413 26.412-33.56 33.564 26.413z"/><circle class="e" cx="252.73" cy="1008.45" r="7.24" transform="rotate(-72.7 252.746 1008.458)"/><path class="e" d="M2214.61 1488.48l-36.43-34.88-12 48.99 48.43-14.11z"/><path class="f" d="M1537.635 299.945l-69.66-74.466 74.467-69.665 69.66 74.467z"/><circle class="f" cx="1097.96" cy="394.54" r="19.88" transform="rotate(-53.54 1097.918 394.553)"/><path class="f" d="M1510.5 542.28l-25.88-27.89-11.21 36.36 37.09-8.47z"/><path class="a" d="M652.05 327.29l-82.006 62.155-62.156-82.006 82.006-62.16z"/><circle class="a" cx="437.08" cy="327.1" r="62.59" transform="rotate(-42.66 437.01 327.086)"/><path class="a" d="M3.52 335.21l270.25 116.91L37.39 627.71 3.52 335.21z"/><path class="b" d="M484.085 455.385L428.71 416.77l38.616-55.376L522.7 400.01z"/><circle class="b" cx="979.69" cy="158.93" r="107.73" transform="rotate(-64.72 979.74 158.908)"/><path class="b" d="M617.72 595.07l167.49 202.36 91.51-246.23-259 43.87z"/><path class="c" d="M1432.12 2115.955l-132.59-36.72 36.722-132.59 132.59 36.72z"/><circle class="c" cx="1724.18" cy="1205.63" r="25.29" transform="rotate(-32.61 1723.876 1205.536)"/><path class="c" d="M374.25 1121.65l41.99 88.11-97.3-7.69 55.31-80.42z"/><path class="d" d="M1555.458 1800.31l-23.503-121.225 121.227-23.503 23.503 121.226z"/><circle class="d" cx="1678.68" cy="1490.67" r="63.31" transform="rotate(-40.61 1678.477 1490.595)"/><path class="d" d="M344.02 1314.26l-58.61-101.22 116.97-.15-58.36 101.37z"/><path class="e" d="M448.75 885.848l-22.656-113.48 113.48-22.655 22.655 113.48z"/><circle class="e" cx="375.95" cy="936.36" r="41.96" transform="rotate(-6.64 376.24 936.98)"/><path class="e" d="M759.81 1564.28l-181.37-15.93 104.48-149.1 76.89 165.03z"/><path class="f" d="M185.557 1482.988l39.41-120.078 120.078 39.41-39.41 120.078z"/><circle class="f" cx="149.35" cy="2042.14" r="49.81" transform="rotate(-14.85 149.38 2042.376)"/><path class="f" d="M448.5 1316.59l-63.98 144.96-93.54-127.89 157.52-17.07z"/><path class="a" d="M193.784 192.388l-71.67-11.762 11.76-71.672 71.672 11.763z"/><circle class="a" cx="695.97" cy="291.89" r="33.83" transform="rotate(-40.96 695.872 291.888)"/><path class="a" d="M83.63 942.59l107.87 37.63-21.34-112.24-86.53 74.61z"/><path class="b" d="M1608.466 104.052l52.01-28.712 28.713 52.01-52.015 28.713z"/><circle class="b" cx="2300.57" cy="384.31" r="60.22" transform="rotate(-78.7 2300.596 384.293)"/><path class="b" d="M1214.37 82.19l-24.19 99.01 97.84-28.55-73.65-70.46z"/><path class="c" d="M555.7 1899.05l-43.796 126.075-126.074-43.795 43.794-126.074z"/><circle class="c" cx="2145.69" cy="1618.32" r="11.65" transform="rotate(-79.41 2145.83 1618.313)"/><path class="c" d="M861.16 1810.38l-45.8-38.08-10.08 58.7 55.88-20.62z"/><path class="d" d="M1830.44 1125.33l52.145-14.746 14.746 52.145-52.14 14.742z"/><circle class="d" cx="2308.89" cy="1298.05" r="32" transform="rotate(-63.62 2308.668 1298.056)"/><path class="d" d="M1841.71 1186.5l-13.28-46.78 47.16 11.89-33.88 34.89z"/><path class="e" d="M945.927 1339.602l22.925-48.13 48.13 22.927-22.926 48.125z"/><circle class="e" cx="1655.19" cy="1150.97" r="4.81" transform="rotate(-44.75 1655.154 1150.967)"/><path class="e" d="M206.99 877.1l-21.13 90.88 89.28-27.15-68.15-63.73z"/><path class="f" d="M420.19 1269.847l-1.808 112.695-112.696-1.81 1.81-112.695z"/><circle class="f" cx="880.41" cy="1251.78" r="21.2" transform="rotate(-64.31 880.5 1251.82)"/><path class="f" d="M74.99 986.61l33.71 42.75 20.17-50.57-53.88 7.82z"/></svg>